<svg xmlns="http://www.w3.org/2000/svg" viewBox="0 0 120.39 147.45"><defs><style>.cls-1,.cls-4,.cls-5{fill:#fff;}.cls-1,.cls-5{stroke:#231f20;stroke-miterlimit:10;}.cls-1{stroke-width:1.82px;}.cls-2{fill:#1db392;}.cls-3{fill:#231f20;}.cls-5{stroke-width:2px;}</style></defs><g id="Layer_2" data-name="Layer 2"><g id="Layer_1-2" data-name="Layer 1"><path class="cls-1" d="M15.5,45.63S2.87,16.28,23.82,13.86c0,0,18.54-3.51,9.82,31.69a27.87,27.87,0,0,0-.23,5.07,29.55,29.55,0,0,0,1.05,6.59C36.76,65.58,44.3,78.08,47,90.14a51.24,51.24,0,0,1,1.15,13.27s-3.93,30.92-9.64,38.35A23.42,23.42,0,0,1,12.23,143S2.34,124.53.94,102a43,43,0,0,1,1.21-12c3.13-12.57,12.58-25.24,13.61-33a42,42,0,0,0,.31-4.44A36.09,36.09,0,0,0,15.5,45.63Z"/><path class="cls-2" d="M35.46,61.7l-20.53.09A19.2,19.2,0,0,0,16,58.48a19.74,19.74,0,0,0,.45-3.08l17-.07c.21.9.46,1.85.76,2.85C34.6,59.46,35,60.63,35.46,61.7Z"/><path class="cls-2" d="M33.09,53l-16.54.08c.05-.88.06-1.83,0-2.86,0-.77-.1-1.5-.18-2.17l16.5-.08c0,.79,0,1.61,0,2.48S33,52.17,33.09,53Z"/><path class="cls-3" d="M16,25.41l7.18,3.34s-1.48,1.14-5.58,1.41A4.44,4.44,0,0,1,16,25.41Z"/><path class="cls-3" d="M32.78,25.33l-7.15,3.41s1.49,1.12,5.59,1.36A4.44,4.44,0,0,0,32.78,25.33Z"/><ellipse class="cls-4" cx="18.53" cy="28.19" rx="0.6" ry="1.14" transform="translate(-0.12 0.08) rotate(-0.25)"/><ellipse class="cls-4" cx="30.19" cy="28.14" rx="0.6" ry="1.14" transform="matrix(1, 0, 0, 1, -0.12, 0.13)"/><ellipse class="cls-3" cx="24.26" cy="35.49" rx="1.48" ry="2.09" transform="translate(-0.16 0.11) rotate(-0.25)"/><path class="cls-1" d="M86.79,45.55S74.16,16.2,95.12,13.78c0,0,18.54-3.51,9.81,31.69a28.75,28.75,0,0,0-.23,5.06,30.85,30.85,0,0,0,1,6.6c2.3,8.36,9.84,20.87,12.53,32.92a51.74,51.74,0,0,1,1.16,13.28s-3.94,30.92-9.64,38.35a23.44,23.44,0,0,1-26.28,1.23s-9.89-18.47-11.28-41a42.91,42.91,0,0,1,1.21-12c3.13-12.57,12.57-25.24,13.6-33a40.48,40.48,0,0,0,.32-4.44A36.83,36.83,0,0,0,86.79,45.55Z"/><path class="cls-2" d="M106.75,61.62l-20.52.09A20.49,20.49,0,0,0,87.3,58.4a19.86,19.86,0,0,0,.46-3.08l17-.07q.3,1.35.75,2.85C105.89,59.37,106.32,60.55,106.75,61.62Z"/><path class="cls-2" d="M104.39,52.89,87.84,53a27,27,0,0,0,0-2.86c0-.77-.09-1.5-.18-2.17l16.51-.08c0,.78,0,1.61,0,2.48S104.3,52.09,104.39,52.89Z"/><path class="cls-3" d="M87.25,25.32l7.19,3.35S93,29.81,88.86,30.08A4.45,4.45,0,0,1,87.25,25.32Z"/><path class="cls-3" d="M104.08,25.25l-7.16,3.41s1.49,1.12,5.59,1.36A4.45,4.45,0,0,0,104.08,25.25Z"/><ellipse class="cls-4" cx="89.82" cy="28.11" rx="0.6" ry="1.14" transform="translate(-0.12 0.4) rotate(-0.25)"/><ellipse class="cls-4" cx="101.49" cy="28.06" rx="0.6" ry="1.14" transform="matrix(1, 0, 0, 1, -0.12, 0.45)"/><ellipse class="cls-3" cx="95.55" cy="35.41" rx="1.48" ry="2.09" transform="translate(-0.16 0.42) rotate(-0.25)"/><path class="cls-5" d="M50.33,35.93S36.48,3.76,59.45,1.11c0,0,20.33-3.85,10.76,34.73A32.12,32.12,0,0,0,70,41.4a33.26,33.26,0,0,0,1.15,7.23C73.63,57.8,81.9,71.5,84.85,84.72a56.38,56.38,0,0,1,1.26,14.55s-4.31,33.9-10.57,42a25.68,25.68,0,0,1-28.8,1.35s-10.84-20.24-12.37-45A47.13,47.13,0,0,1,35.7,84.49c3.43-13.78,13.78-27.66,14.91-36.21A46.93,46.93,0,0,0,51,43.41,40.66,40.66,0,0,0,50.33,35.93Z"/><path class="cls-2" d="M72.21,53.55l-22.5.1A22.14,22.14,0,0,0,50.89,50a21.5,21.5,0,0,0,.49-3.38L70,46.56c.22,1,.5,2,.83,3.13C71.26,51.09,71.73,52.38,72.21,53.55Z"/><path class="cls-2" d="M69.61,44l-18.13.08a29.35,29.35,0,0,0,0-3.13c0-.85-.1-1.64-.2-2.38l18.09-.08c0,.86,0,1.76,0,2.72S69.52,43.11,69.61,44Z"/><path class="cls-3" d="M50.83,13.76l7.88,3.67S57.08,18.68,52.59,19A4.89,4.89,0,0,1,50.83,13.76Z"/><path class="cls-3" d="M69.28,13.68l-7.85,3.74s1.63,1.23,6.13,1.49A4.89,4.89,0,0,0,69.28,13.68Z"/><ellipse class="cls-4" cx="53.65" cy="16.82" rx="0.65" ry="1.25" transform="translate(-0.07 0.24) rotate(-0.25)"/><ellipse class="cls-4" cx="66.44" cy="16.76" rx="0.65" ry="1.25" transform="translate(-0.07 0.29) rotate(-0.25)"/><ellipse class="cls-3" cx="59.93" cy="24.82" rx="1.63" ry="2.3" transform="translate(-0.11 0.26) rotate(-0.25)"/></g></g></svg>