<svg xmlns="http://www.w3.org/2000/svg" viewBox="0 0 152.83 152.83"><defs><style>.cls-1{fill:#ff9410;}.cls-2{fill:#ed8411;}.cls-3{fill:#fca13d;}.cls-4{fill:#231f20;}.cls-5{fill:#fff;stroke:#231f20;stroke-miterlimit:10;}</style></defs><g id="Layer_2" data-name="Layer 2"><g id="Layer_1-2" data-name="Layer 1"><circle class="cls-1" cx="76.41" cy="76.41" r="76.41"/><path class="cls-2" d="M4.49,102.28A76,76,0,0,0,137.93,31.09,76.69,76.69,0,0,1,152.25,67c3.77,31.33-13.87,54.25-17.77,59.08A77.62,77.62,0,0,1,94.1,150.77c-27.45,6.54-49.11-4.47-54-7.12A77.67,77.67,0,0,1,4.49,102.28Z"/><path class="cls-3" d="M14.51,48.64c1.25,1.27,10.71-9.33,31.59-21.22,19.64-11.18,32.48-13.88,32-15.51-.54-1.95-19.9-1.52-37.45,8.59S13.08,47.18,14.51,48.64Z"/><path class="cls-4" d="M72.15,56.06a95.7,95.7,0,0,0-17.24-5c-11.49-2.18-19.61-3.72-26.14,1-6.3,4.52-7.34,12.12-7.41,12.76a19.56,19.56,0,0,0,4.23,14.32s12.62,20.06,41.62,6.69c0,0,8.61-4,15.8-1.34,0,0,28.5,15.42,43.05-3.89.62-.68,7.5-8.47,5-18.22-.26-1-2.12-7.95-8.47-11.28-4-2.1-7.94-1.82-11-1.5a153.81,153.81,0,0,0-30.49,6.6S74.2,56.8,72.15,56.06Z"/><path class="cls-5" d="M66.49,68.36s-1.33-3.85-11-7.06c0,0-19.93-8.47-19.79,7.06,0,0-.35,9.83,12,11.93a21.86,21.86,0,0,0,6.23,0,22.46,22.46,0,0,0,9.28-3.61,8,8,0,0,0,2.57-2.86A8.25,8.25,0,0,0,66.49,68.36Z"/><path class="cls-5" d="M87.11,68.36s1.33-3.85,11-7.06c0,0,19.94-8.47,19.8,7.06,0,0,.35,9.83-12,11.93a23.55,23.55,0,0,1-6.24,0,24.23,24.23,0,0,1-9.63-3.48,9.43,9.43,0,0,1-2.22-3A9.56,9.56,0,0,1,87.11,68.36Z"/></g></g></svg>