<svg xmlns="http://www.w3.org/2000/svg" viewBox="0 0 256.73 207.9"><defs><style>.cls-1,.cls-4,.cls-8{fill:#fff;}.cls-1,.cls-8{stroke:#231f20;stroke-miterlimit:10;}.cls-1{stroke-width:2px;}.cls-2{fill:#1db392;}.cls-3{fill:#231f20;}.cls-5{fill:#ff9410;}.cls-6{fill:#ed8411;}.cls-7{fill:#fca13d;}</style></defs><g id="Layer_2" data-name="Layer 2"><g id="Layer_1-2" data-name="Layer 1"><path class="cls-1" d="M91.43,34.81S80.72,1.46,103.83,1c0,0,20.61-1.89,7.39,35.6a33,33,0,0,0-.78,5.51,33.46,33.46,0,0,0,.46,7.31c1.63,9.36,8.55,23.79,10.22,37.23a56.46,56.46,0,0,1-.13,14.61s-7.54,33.33-14.54,40.84a25.69,25.69,0,0,1-28.8-1.42s-8.85-21.18-8-46a47.12,47.12,0,0,1,2.58-13C77,68.36,88.59,55.53,90.53,47.13a46.36,46.36,0,0,0,.81-4.81A40.75,40.75,0,0,0,91.43,34.81Z"/><path class="cls-2" d="M111.52,54.44,89.11,52.38a20.86,20.86,0,0,0,1.52-3.49,21.27,21.27,0,0,0,.82-3.32L110,47.27c.13,1,.3,2.08.52,3.19C110.82,51.9,111.16,53.23,111.52,54.44Z"/><path class="cls-2" d="M109.85,44.67,91.79,43a30,30,0,0,0,.33-3.11c0-.85,0-1.65,0-2.39l18,1.65c-.1.85-.19,1.75-.24,2.71S109.84,43.79,109.85,44.67Z"/><path class="cls-3" d="M94,12.79l7.49,4.41s-1.73,1.08-6.23.95A4.89,4.89,0,0,1,94,12.79Z"/><path class="cls-3" d="M112.41,14.47l-8.16,3s1.5,1.37,6,2.06A4.87,4.87,0,0,0,112.41,14.47Z"/><ellipse class="cls-4" cx="96.56" cy="16.1" rx="1.25" ry="0.65" transform="translate(71.71 110.79) rotate(-84.77)"/><ellipse class="cls-4" cx="109.29" cy="17.27" rx="1.25" ry="0.65" transform="translate(82.13 124.53) rotate(-84.77)"/><ellipse class="cls-3" cx="102.05" cy="24.66" rx="2.3" ry="1.63" transform="translate(68.18 124.04) rotate(-84.77)"/><path class="cls-1" d="M218.79,18s20.12-28.67,34.43-10.51c0,0,13.94,15.28-23.93,27.39a31.4,31.4,0,0,0-4.86,2.7,33.69,33.69,0,0,0-5.55,4.78c-6.48,7-13.81,21.18-23.51,30.63a56.27,56.27,0,0,1-11.72,8.71s-31.12,14.12-41.34,13.07A25.68,25.68,0,0,1,126.06,71S137.6,51.1,157.85,36.81A47.19,47.19,0,0,1,169.77,31c13.53-4.31,30.78-2.78,38.65-6.3a45.79,45.79,0,0,0,4.33-2.27A39.93,39.93,0,0,0,218.79,18Z"/><path class="cls-2" d="M215.27,45.86l-11.89-19.1a21.35,21.35,0,0,0,3.7-.9,21.09,21.09,0,0,0,3.14-1.35l9.84,15.81c-.72.71-1.47,1.49-2.22,2.35C216.87,43.77,216,44.84,215.27,45.86Z"/><path class="cls-2" d="M222.05,38.63l-9.58-15.39c.84-.46,1.74-1,2.68-1.63.7-.47,1.34-.95,1.92-1.41l9.56,15.35c-.74.43-1.51.91-2.3,1.45S222.75,38.1,222.05,38.63Z"/><path class="cls-3" d="M237.92,6.78l1,8.64s-1.91-.73-4.52-4.4A4.88,4.88,0,0,1,237.92,6.78Z"/><path class="cls-3" d="M247.67,22.44l-7.3-4.71s-.19,2,1.95,6A4.87,4.87,0,0,0,247.67,22.44Z"/><ellipse class="cls-4" cx="236.8" cy="10.79" rx="1.25" ry="0.65" transform="translate(30.07 126.78) rotate(-31.91)"/><ellipse class="cls-4" cx="243.55" cy="21.64" rx="1.25" ry="0.65" transform="translate(25.36 132) rotate(-31.91)"/><ellipse class="cls-3" cx="233.29" cy="20.33" rx="2.3" ry="1.63" transform="translate(24.5 126.37) rotate(-31.91)"/><path class="cls-1" d="M37.9,64.82s-21-28,.7-36c0,0,18.85-8.51,18.61,31.25a31.25,31.25,0,0,0,1,5.45,33.51,33.51,0,0,0,2.82,6.76C65.69,80.61,76.93,92,82.9,104.15A56,56,0,0,1,87.54,118s3.76,34-.4,43.35a25.69,25.69,0,0,1-27.68,8.06s-15.29-17.13-22.58-40.82a47,47,0,0,1-1.81-13.12c.11-14.21,6.91-30.13,6-38.71a44.83,44.83,0,0,0-.8-4.81A40.41,40.41,0,0,0,37.9,64.82Z"/><path class="cls-2" d="M63.3,76.82,41.45,82.19a21.31,21.31,0,0,0,0-7.2l18.09-4.45q.67,1.36,1.53,2.85C61.81,74.65,62.56,75.79,63.3,76.82Z"/><path class="cls-2" d="M58.54,68.13,40.93,72.46a28.73,28.73,0,0,0-.72-3c-.23-.81-.49-1.57-.75-2.27L57,62.82c.18.84.39,1.72.65,2.64S58.24,67.3,58.54,68.13Z"/><path class="cls-3" d="M33.19,43.16l8.51,1.72s-1.28,1.59-5.58,2.93A4.87,4.87,0,0,1,33.19,43.16Z"/><path class="cls-3" d="M51.1,38.75l-6.75,5.48s1.88.81,6.3,0A4.88,4.88,0,0,0,51.1,38.75Z"/><ellipse class="cls-4" cx="36.64" cy="45.47" rx="0.65" ry="1.25" transform="translate(-9.8 10.07) rotate(-13.82)"/><ellipse class="cls-4" cx="49.06" cy="42.41" rx="0.65" ry="1.25" transform="translate(-8.71 12.95) rotate(-13.82)"/><ellipse class="cls-3" cx="44.63" cy="51.77" rx="1.63" ry="2.3" transform="translate(-11.08 12.16) rotate(-13.82)"/><path id="Path_19673" data-name="Path 19673" class="cls-3" d="M56.58,80l-2,25.43L12.46,96.72,28.22,125.9,0,129l16.23,11.82-14,6.3,19.19,5.63-19.5,22,37.57-1.95-7.06,30.75L65.87,190.4l5,16L84.7,193.83,98,206.32l5.4-16.14,34,13.35-6.87-29.91L167.6,176l-19.38-22.67,19.68-5.5L153.3,141l16.53-12-27-2.93,15.93-28.16-42.22,8.19-1.52-26L92.43,94.25,84.92,82.88,77.76,93.71Z"/><circle class="cls-5" cx="134.74" cy="143.2" r="64.68"/><path class="cls-6" d="M70.43,136.14a64.36,64.36,0,0,0,127.94-4.54,65,65,0,0,1-2.46,32.64c-8.78,25.22-30.72,36.09-35.48,38.32a64.69,64.69,0,0,1-90-66.42Z"/><path class="cls-7" d="M98,99.08c.48,1.42,11.61-3.12,31.91-4.4,19.09-1.2,29.86,1.52,30.12.11.32-1.68-14.56-8.55-31.67-7.38S97.45,97.44,98,99.08Z"/><path class="cls-3" d="M139.06,126.14a80.78,80.78,0,0,0-11.26-10.2c-7.92-5.92-13.52-10.11-20.23-9-6.47,1.09-10.09,6.48-10.38,6.94a16.59,16.59,0,0,0-2.11,12.47s2.14,19.94,29.17,20.56c0,0,8,.15,12.51,4.85,0,0,15.94,22.32,34.18,13.05.73-.29,8.86-3.66,10.61-12,.18-.89,1.34-6.83-2.25-11.73-2.26-3.09-5.36-4.34-7.85-5.25a130,130,0,0,0-25.63-6.32S140.35,127.46,139.06,126.14Z"/><path class="cls-8" d="M130.19,133.39s.42-3.42-5.73-9.45c0,0-12-13.85-17.68-2,0,0-3.92,7.34,4.66,13.52a18.67,18.67,0,0,0,13.14,3,6.74,6.74,0,0,0,3-1.22A7,7,0,0,0,130.19,133.39Z"/><path class="cls-8" d="M145.87,141.06s2.44-2.43,11-1.29c0,0,18.31,1,12.43,12.73,0,0-3.39,7.61-13.54,4.63A20.44,20.44,0,0,1,145,148.57a7.94,7.94,0,0,1-.57-3.1A8,8,0,0,1,145.87,141.06Z"/></g></g></svg>