<svg xmlns="http://www.w3.org/2000/svg" viewBox="0 0 571.53 423.17"><defs><style>.cls-1{fill:#ff9410;}.cls-2{fill:#1db392;}.cls-3{fill:#231f20;}.cls-4,.cls-5{fill:none;stroke:#231f20;stroke-miterlimit:10;stroke-width:10px;}.cls-5{stroke-dasharray:12.47 12.47;}</style></defs><g id="Layer_2" data-name="Layer 2"><g id="Layer_1-2" data-name="Layer 1"><path id="Path_19673" data-name="Path 19673" class="cls-1" d="M112.08,36l10.58,65.28L11.4,105.37l57.74,63.68L0,194.24l48.15,19.69-31.3,24.51,51.8,2.29-35.44,67.5,93.33-28.17,1.27,81.77,76-53.74,22.45,37.2,27.08-40.23,41.2,23.18,3.59-44L392,296.83l-35.8-71,94.76-17-62.81-45.07,46.13-26-41-8.13,34.16-40.55L357.7,98.41l22.66-80.74L279.18,64.42,259.26,0,211.13,49.63l-25.95-24-11.3,31.68Z"/><rect class="cls-2" x="193.86" y="147.16" width="353.57" height="211.3" rx="13.48" transform="translate(157.49 -141.98) rotate(27.34)"/><path class="cls-3" d="M467.06,421.59,177.15,271.72a14.16,14.16,0,0,1-6.07-19.09l16.13-29.94L501.29,385.06l-15.86,30.68A13.63,13.63,0,0,1,467.06,421.59Z"/><line class="cls-4" x1="262.31" y1="136.98" x2="267.64" y2="139.74"/><line class="cls-5" x1="278.72" y1="145.46" x2="516.93" y2="268.61"/><line class="cls-4" x1="522.47" y1="271.47" x2="527.8" y2="274.23"/></g></g></svg>