<svg xmlns="http://www.w3.org/2000/svg" viewBox="0 0 119.57 97.35"><defs><style>.cls-1{fill:#fff;stroke:#231f20;stroke-miterlimit:10;}</style></defs><g id="Layer_2" data-name="Layer 2"><g id="Layer_1-2" data-name="Layer 1"><path class="cls-1" d="M15.09,30.06S2.45,10.62,23.41,9c0,0,18.54-2.33,9.81,21A12.75,12.75,0,0,0,33,33.37a14,14,0,0,0,1.06,4.37c2.3,5.53,9.83,13.82,12.52,21.8a23,23,0,0,1,1.16,8.8s-3.94,20.48-9.64,25.4a33.15,33.15,0,0,1-26.27.81S1.92,82.32.53,67.37a19.35,19.35,0,0,1,1.21-8c3.13-8.33,12.58-16.72,13.61-21.89a18.52,18.52,0,0,0,.31-2.94A16.5,16.5,0,0,0,15.09,30.06Z"/><path class="cls-1" d="M35.05,40.71l-20.53.06a10.39,10.39,0,0,0,1.07-2.19,8.69,8.69,0,0,0,.46-2l17,0a17.24,17.24,0,0,0,.76,1.88A19.74,19.74,0,0,0,35.05,40.71Z"/><path class="cls-1" d="M32.68,34.93,16.14,35a13.21,13.21,0,0,0,0-1.9q-.06-.77-.18-1.44l16.5,0a15.16,15.16,0,0,0,0,1.64C32.53,33.83,32.6,34.4,32.68,34.93Z"/><path class="cls-1" d="M15.54,16.67l7.19,2.21s-1.48.76-5.58.94C17.15,19.82,14.69,18.67,15.54,16.67Z"/><path class="cls-1" d="M32.37,16.62l-7.16,2.26s1.49.74,5.59.9C30.8,19.78,33.25,18.62,32.37,16.62Z"/><ellipse class="cls-1" cx="18.12" cy="18.51" rx="0.6" ry="0.75" transform="translate(-0.24 0.23) rotate(-0.74)"/><ellipse class="cls-1" cx="29.78" cy="18.48" rx="0.6" ry="0.75" transform="matrix(1, -0.01, 0.01, 1, -0.24, 0.38)"/><ellipse class="cls-1" cx="23.85" cy="23.35" rx="1.39" ry="1.48" transform="translate(-0.04 46.65) rotate(-88.69)"/><path class="cls-1" d="M86.38,30S73.75,10.57,94.7,9c0,0,18.55-2.32,9.82,21a12.78,12.78,0,0,0-.23,3.36,14.16,14.16,0,0,0,1,4.37c2.3,5.54,9.84,13.82,12.53,21.81A23,23,0,0,1,119,68.28s-3.93,20.49-9.64,25.41a33.2,33.2,0,0,1-26.27.81S73.22,82.27,71.82,67.32a19.6,19.6,0,0,1,1.21-8C76.17,51,85.61,42.64,86.64,37.47A19.24,19.24,0,0,0,87,34.53,16.46,16.46,0,0,0,86.38,30Z"/><path class="cls-1" d="M106.34,40.65l-20.53.06a10.16,10.16,0,0,0,1.08-2.19,9,9,0,0,0,.45-2l17,0c.21.6.46,1.23.76,1.89A22,22,0,0,0,106.34,40.65Z"/><path class="cls-1" d="M104,34.87l-16.54.05a11.79,11.79,0,0,0,0-1.89,12.31,12.31,0,0,0-.18-1.44l16.5-.05c0,.52,0,1.07,0,1.64S103.89,34.34,104,34.87Z"/><path class="cls-1" d="M86.84,16.61,94,18.83s-1.48.75-5.57.93C88.45,19.76,86,18.62,86.84,16.61Z"/><path class="cls-1" d="M103.67,16.56l-7.16,2.26s1.49.75,5.59.9C102.1,19.72,104.55,18.56,103.67,16.56Z"/><ellipse class="cls-1" cx="89.41" cy="18.46" rx="0.6" ry="0.75" transform="translate(-0.23 1.15) rotate(-0.74)"/><ellipse class="cls-1" cx="101.07" cy="18.43" rx="0.6" ry="0.75" transform="translate(-0.23 1.3) rotate(-0.74)"/><ellipse class="cls-1" cx="95.14" cy="23.29" rx="1.39" ry="1.48" transform="translate(69.68 117.88) rotate(-88.69)"/><path class="cls-1" d="M49.92,23.64S36.07,2.33,59,.57c0,0,20.33-2.55,10.76,23a13.75,13.75,0,0,0-.25,3.68,15.24,15.24,0,0,0,1.15,4.79C73.22,38.12,81.48,47.2,84.43,56a25.18,25.18,0,0,1,1.27,9.63S81.38,88.05,75.13,93.44a36.33,36.33,0,0,1-28.8.89S35.49,80.93,34,64.54a21.27,21.27,0,0,1,1.32-8.73c3.44-9.13,13.79-18.33,14.92-24a20.89,20.89,0,0,0,.35-3.23A18.14,18.14,0,0,0,49.92,23.64Z"/><path class="cls-1" d="M71.79,35.31l-22.5.06A10.52,10.52,0,0,0,50.47,33a9.46,9.46,0,0,0,.5-2.24l18.63-.05a18.61,18.61,0,0,0,.83,2.07A24.46,24.46,0,0,0,71.79,35.31Z"/><path class="cls-1" d="M69.2,29,51.07,29a14.11,14.11,0,0,0,0-2.07,14.48,14.48,0,0,0-.2-1.58L69,25.32c0,.57,0,1.17,0,1.8S69.11,28.39,69.2,29Z"/><path class="cls-1" d="M50.42,9l7.87,2.44s-1.62.82-6.11,1C52.18,12.41,49.48,11.15,50.42,9Z"/><path class="cls-1" d="M68.86,8.9,61,11.38s1.63.81,6.13,1C67.15,12.36,69.83,11.09,68.86,8.9Z"/><ellipse class="cls-1" cx="53.24" cy="10.98" rx="0.65" ry="0.83" transform="translate(-0.14 0.69) rotate(-0.74)"/><ellipse class="cls-1" cx="66.02" cy="10.94" rx="0.65" ry="0.83" transform="translate(-0.14 0.85) rotate(-0.74)"/><ellipse class="cls-1" cx="59.52" cy="16.28" rx="1.52" ry="1.63" transform="translate(41.89 75.41) rotate(-88.69)"/></g></g></svg>