<svg xmlns="http://www.w3.org/2000/svg" viewBox="0 0 119.98 89.45"><defs><style>.cls-1,.cls-4,.cls-5{fill:#fff;}.cls-1,.cls-5{stroke:#231f20;stroke-miterlimit:10;}.cls-1{stroke-width:1.42px;}.cls-2{fill:#1db392;}.cls-3{fill:#231f20;}.cls-5{stroke-width:1.55px;}</style></defs><g id="Layer_2" data-name="Layer 2"><g id="Layer_1-2" data-name="Layer 1"><path class="cls-1" d="M15.3,27.74S2.66,10,23.62,8.55c0,0,18.54-2.12,9.81,19.15a10.58,10.58,0,0,0-.23,3.06,12,12,0,0,0,1,4c2.31,5,9.84,12.6,12.53,19.89a19.27,19.27,0,0,1,1.16,8S44,81.35,38.3,85.84A36.07,36.07,0,0,1,12,86.58S2.13,75.42.74,61.78A16.26,16.26,0,0,1,2,54.52c3.13-7.6,12.57-15.25,13.61-20a15.43,15.43,0,0,0,.31-2.68A13.9,13.9,0,0,0,15.3,27.74Z"/><path class="cls-2" d="M35.25,37.46l-20.52,0a9.14,9.14,0,0,0,1.07-2,7.28,7.28,0,0,0,.46-1.86l17,0A17.33,17.33,0,0,0,34,35.33,21.35,21.35,0,0,0,35.25,37.46Z"/><path class="cls-2" d="M32.89,32.18l-16.55,0a9.83,9.83,0,0,0,0-1.73,12.19,12.19,0,0,0-.18-1.31l16.5-.05c0,.48,0,1,0,1.5A13.79,13.79,0,0,0,32.89,32.18Z"/><path class="cls-3" d="M15.75,15.52l7.19,2s-1.48.68-5.58.85C17.36,18.4,14.89,17.35,15.75,15.52Z"/><path class="cls-3" d="M32.58,15.48l-7.16,2.06s1.49.68,5.59.82C31,18.36,33.46,17.3,32.58,15.48Z"/><ellipse class="cls-4" cx="18.32" cy="17.21" rx="0.6" ry="0.69" transform="translate(-0.36 0.39) rotate(-1.21)"/><ellipse class="cls-4" cx="29.99" cy="17.18" rx="0.6" ry="0.69" transform="translate(-0.36 0.64) rotate(-1.21)"/><ellipse class="cls-3" cx="24.06" cy="21.62" rx="1.27" ry="1.48" transform="translate(2.21 45.46) rotate(-89.45)"/><path class="cls-1" d="M86.59,27.7S74,10,94.91,8.5c0,0,18.55-2.12,9.82,19.15a10.58,10.58,0,0,0-.23,3.06,12,12,0,0,0,1,4c2.3,5,9.84,12.6,12.53,19.89a19.29,19.29,0,0,1,1.15,8s-3.93,18.69-9.64,23.18a36.06,36.06,0,0,1-26.27.74S73.43,75.37,72,61.73a16.26,16.26,0,0,1,1.21-7.26c3.14-7.6,12.58-15.25,13.61-20a15.43,15.43,0,0,0,.31-2.68A13.46,13.46,0,0,0,86.59,27.7Z"/><path class="cls-2" d="M106.55,37.41,86,37.46a8.71,8.71,0,0,0,1.08-2,7.66,7.66,0,0,0,.45-1.86l17,0c.21.54.46,1.12.76,1.72A19.58,19.58,0,0,0,106.55,37.41Z"/><path class="cls-2" d="M104.18,32.13l-16.54,0a9.88,9.88,0,0,0,0-1.73,10.35,10.35,0,0,0-.18-1.31l16.5,0c0,.47,0,1,0,1.49A13.86,13.86,0,0,0,104.18,32.13Z"/><path class="cls-3" d="M87.05,15.48l7.18,2s-1.48.68-5.57.85C88.66,18.35,86.19,17.3,87.05,15.48Z"/><path class="cls-3" d="M103.87,15.43l-7.15,2.06s1.49.68,5.59.82C102.31,18.31,104.76,17.25,103.87,15.43Z"/><ellipse class="cls-4" cx="89.62" cy="17.16" rx="0.6" ry="0.69" transform="translate(-0.34 1.9) rotate(-1.21)"/><ellipse class="cls-4" cx="101.28" cy="17.13" rx="0.6" ry="0.69" transform="translate(-0.34 2.15) rotate(-1.21)"/><ellipse class="cls-3" cx="95.35" cy="21.57" rx="1.27" ry="1.48" transform="translate(72.86 116.71) rotate(-89.45)"/><path class="cls-5" d="M50.13,21.88S36.28,2.44,59.25.84c0,0,20.32-2.33,10.76,21a11.4,11.4,0,0,0-.26,3.36,13.28,13.28,0,0,0,1.16,4.37c2.52,5.54,10.78,13.82,13.73,21.81a21.13,21.13,0,0,1,1.27,8.79s-4.32,20.48-10.57,25.4a39.51,39.51,0,0,1-28.8.82S35.7,74.15,34.17,59.19a17.88,17.88,0,0,1,1.32-8c3.44-8.33,13.79-16.72,14.92-21.88a17.41,17.41,0,0,0,.35-2.94A15.65,15.65,0,0,0,50.13,21.88Z"/><path class="cls-2" d="M72,32.53l-22.5.06a9.38,9.38,0,0,0,1.18-2.19,8.47,8.47,0,0,0,.5-2l18.63-.05a18.36,18.36,0,0,0,.82,1.89A24.27,24.27,0,0,0,72,32.53Z"/><path class="cls-2" d="M69.41,26.75l-18.13.05a11.79,11.79,0,0,0,0-1.89,11.91,11.91,0,0,0-.2-1.44l18.09,0a15.13,15.13,0,0,0,0,1.64A16.68,16.68,0,0,0,69.41,26.75Z"/><path class="cls-3" d="M50.63,8.49l7.87,2.22s-1.62.75-6.11.93C52.39,11.64,49.69,10.49,50.63,8.49Z"/><path class="cls-3" d="M69.07,8.44,61.23,10.7s1.63.74,6.12.9C67.35,11.6,70,10.44,69.07,8.44Z"/><ellipse class="cls-4" cx="53.45" cy="10.34" rx="0.65" ry="0.75" transform="translate(-0.21 1.13) rotate(-1.21)"/><ellipse class="cls-4" cx="66.23" cy="10.3" rx="0.65" ry="0.75" transform="translate(-0.2 1.4) rotate(-1.21)"/><ellipse class="cls-3" cx="59.73" cy="15.17" rx="1.39" ry="1.63" transform="translate(43.98 74.75) rotate(-89.45)"/></g></g></svg>