<svg xmlns="http://www.w3.org/2000/svg" viewBox="0 0 499.76 274.18"><defs><style>.cls-1{fill:#231f20;stroke:#fff;stroke-linecap:round;stroke-linejoin:round;stroke-width:0.5px;}.cls-2{fill:#fff;}.cls-3{fill:#ff9410;}</style></defs><g id="Layer_2" data-name="Layer 2"><g id="Layer_1-2" data-name="Layer 1"><path id="Path_19673" data-name="Path 19673" class="cls-1" d="M166.58.25l-6,55.06L36.89,36.45,83.22,99.63l-83,6.63L48,131.84,6.83,145.47l56.43,12.2L5.93,205.34l110.43-4.23L95.6,267.69l98.28-28.42,14.65,34.66,40.73-27.23,39.08,27,15.87-34.94,100,28.91L384,202.94l109,5.16L436,159l57.87-11.91L450.9,132.33l48.61-26.07-79.34-6.35L467,39,342.91,56.68,338.43.45,272,31.1,249.88,6.49l-21,23.44Z"/><path class="cls-2" d="M132.15,107.18q7.18,25.69,14.38,51.4-5.49,1.53-10.95,3.24-6.41-20.48-12.79-40.94a11.41,11.41,0,0,1-1.91,1.56c-1,.71-2.22,1.48-3.65,2.31a40.76,40.76,0,0,1-4.54,2.24q-1.43-4.17-2.86-8.34a34.89,34.89,0,0,0,4.59-2.58,27.51,27.51,0,0,0,3.65-2.88,6.59,6.59,0,0,0,1.79-2.38Q126,108.91,132.15,107.18Z"/><path class="cls-2" d="M197.87,148.81a23.42,23.42,0,0,1-22.15-8.94,32.39,32.39,0,0,1-6.09-14.08c-1.15-5.78-1-10.92.64-15.4a23.19,23.19,0,0,1,8.1-11,28.59,28.59,0,0,1,13.45-5.27,27.71,27.71,0,0,1,11.13.48,20.16,20.16,0,0,1,7.7,3.88,17.6,17.6,0,0,1,4.54,5.57,15.17,15.17,0,0,1,1.71,5.65,1.49,1.49,0,0,1,0,.21,1.64,1.64,0,0,0,0,.22q-6,.48-12.08,1.12l0-.21a1.8,1.8,0,0,0,0-.22,8.24,8.24,0,0,0-1-3.21,8.69,8.69,0,0,0-2.37-2.7,10.08,10.08,0,0,0-3.62-1.68,12.47,12.47,0,0,0-4.77-.19,13.62,13.62,0,0,0-6.57,2.76,13,13,0,0,0-4.36,6.63c-.93,2.89-1,6.59-.23,11.08a30.2,30.2,0,0,0,2.53,8.44,16,16,0,0,0,3.8,5.12,11,11,0,0,0,4.55,2.39,13,13,0,0,0,4.88.26,13.8,13.8,0,0,0,5.56-1.81,10.64,10.64,0,0,0,3.31-3.13,8.24,8.24,0,0,0,1.36-3.38c-.12-1.15-.25-2.3-.37-3.45q-5.59.58-11.18,1.34l-1.08-8q11.07-1.49,22.18-2.37,1.05,13.34,2.11,26.66-3,.24-6,.52c-.52-1.92-1.06-3.84-1.6-5.76a7.92,7.92,0,0,1-1.08,1.92,12.86,12.86,0,0,1-2.47,2.53,17.49,17.49,0,0,1-4.21,2.41A25.14,25.14,0,0,1,197.87,148.81Z"/><path class="cls-2" d="M223.94,145.28q4.94-27.09,11.78-54,10.28-.33,20.54-.17,7.26,26.79,12.64,53.81-5.83-.3-11.67-.41-5-23.37-11.2-46.6h.08q-5.91,23.32-10.51,46.8Q229.77,144.88,223.94,145.28Zm9.16-12.88c-.12-2.92-.25-5.83-.37-8.74q13.56-.57,27.12-.23c-.07,2.91-.15,5.83-.22,8.74Q246.37,131.84,233.1,132.4Z"/><path class="cls-2" d="M322.48,97.21q10.86,1.83,21.65,4.23-5.76,26-11.53,52-5.31-1.18-10.63-2.2,4.41-22.92,8.81-45.85l.22.19q-10.26,21.72-19.26,43.84-7.38-1.22-14.8-2.13-2.47-23.82-6.26-47.62l.26-.09q-2.25,23.28-4.49,46.55c-3.6-.35-7.2-.64-10.8-.89q1.8-26.58,3.61-53.18,11,.75,21.88,2,2.78,24.49,4.3,49l-1-.14Q312.87,119.93,322.48,97.21Z"/><path class="cls-2" d="M359.46,114.1q3.5-1.84,7-3.63-3,10.64-5.95,21.26c-.61-1.27-1.23-2.54-1.85-3.81q10.51,2.87,20.9,6.3l-2.72,8.24q-10.17-3.36-20.46-6.17l3.5-2.33-6,21.43q-1.8-3.27-3.68-6.54,13.27,3.53,26.33,8c-.93,2.74-1.87,5.47-2.8,8.21q-15.79-5.42-31.92-9.4,6.42-25.87,12.83-51.74Q373,108.46,391,114.62c-.93,2.73-1.87,5.47-2.81,8.2Q374,117.95,359.46,114.1Z"/><path class="cls-3" d="M162.75,179.55l4.8-18h4.16l4.75,18h-2.72l-4.13-16.34h0l-4.16,16.34Zm2.78-4.57v-2.19h8.19V175Z"/><path class="cls-3" d="M178.81,179.55v-18h4.93a7.84,7.84,0,0,1,3.24.64,6.87,6.87,0,0,1,2.48,1.8,8,8,0,0,1,1.59,2.83,12.54,12.54,0,0,1,0,7.41,8.18,8.18,0,0,1-1.59,2.84,6.8,6.8,0,0,1-2.48,1.82,8,8,0,0,1-3.24.63Zm2.65-.8-1.19-1.39h3.16a5,5,0,0,0,2.83-.83,5.52,5.52,0,0,0,2-2.36,9.61,9.61,0,0,0,0-7.25,5.49,5.49,0,0,0-2-2.33,5.11,5.11,0,0,0-2.83-.81h-3.16l1.19-1.39Z"/><path class="cls-3" d="M194.41,179.55v-18h4.94a7.91,7.91,0,0,1,3.24.64,7,7,0,0,1,2.48,1.8,8.37,8.37,0,0,1,1.59,2.83,12.54,12.54,0,0,1,0,7.41,8.52,8.52,0,0,1-1.59,2.84,7,7,0,0,1-2.48,1.82,8.07,8.07,0,0,1-3.24.63Zm2.66-.8-1.2-1.39H199a5,5,0,0,0,2.83-.83,5.54,5.54,0,0,0,2-2.36,9.74,9.74,0,0,0,0-7.25,5.51,5.51,0,0,0-2-2.33,5.07,5.07,0,0,0-2.83-.81h-3.16l1.2-1.39Z"/><path class="cls-3" d="M211.48,163.78l1.19-1.39v7.89l-.63-.84h6.81v2.19H212l.63-.84v8l-1.19-1.39h8.72v2.19H210v-18H220.2v2.2Z"/><path class="cls-3" d="M223.49,179.55v-18h4.93a7.84,7.84,0,0,1,3.24.64,6.87,6.87,0,0,1,2.48,1.8,8,8,0,0,1,1.59,2.83,12.54,12.54,0,0,1,0,7.41,8.18,8.18,0,0,1-1.59,2.84,6.8,6.8,0,0,1-2.48,1.82,8,8,0,0,1-3.24.63Zm2.66-.8-1.2-1.39h3.16a5,5,0,0,0,2.83-.83,5.52,5.52,0,0,0,1.95-2.36,9.61,9.61,0,0,0,0-7.25,5.49,5.49,0,0,0-1.95-2.33,5.09,5.09,0,0,0-2.83-.81H225l1.2-1.39Z"/><path class="cls-3" d="M256.31,163.78h-5.45l.83-1.39v17.16h-2.64V162.39l.91,1.39h-5.52v-2.2h11.87Z"/><path class="cls-3" d="M264.44,179.81a7.07,7.07,0,0,1-3-.62,6.8,6.8,0,0,1-2.38-1.8,8.28,8.28,0,0,1-1.57-2.91,13.83,13.83,0,0,1,0-7.86,8.28,8.28,0,0,1,1.57-2.89,6.86,6.86,0,0,1,2.38-1.78,7.65,7.65,0,0,1,5.94,0,6.68,6.68,0,0,1,2.38,1.78,8.46,8.46,0,0,1,1.58,2.89,14.07,14.07,0,0,1,0,7.86,8.46,8.46,0,0,1-1.58,2.91,6.8,6.8,0,0,1-2.38,1.8A7.16,7.16,0,0,1,264.44,179.81Zm0-2.26a4.26,4.26,0,0,0,2.47-.75,5,5,0,0,0,1.71-2.31,12.83,12.83,0,0,0,0-7.88,4.82,4.82,0,0,0-1.71-2.26,4.32,4.32,0,0,0-2.47-.73,4.27,4.27,0,0,0-2.44.73,4.84,4.84,0,0,0-1.72,2.26,12.48,12.48,0,0,0,0,7.89,5,5,0,0,0,1.72,2.3A4.21,4.21,0,0,0,264.44,177.55Z"/><path class="cls-3" d="M294.52,173.19a6.81,6.81,0,0,1-1.67,4.42,6.2,6.2,0,0,1-2.12,1.59,6.85,6.85,0,0,1-3,.61,6.69,6.69,0,0,1-4-1.19,7.35,7.35,0,0,1-2.51-3.27,13.57,13.57,0,0,1,0-9.56,7.38,7.38,0,0,1,2.51-3.26,6.76,6.76,0,0,1,4-1.18,6.85,6.85,0,0,1,3.35.77,6.36,6.36,0,0,1,2.2,2,6.93,6.93,0,0,1,1.09,2.51,5.89,5.89,0,0,1,.16,1.34h-2.66a5,5,0,0,0-.06-.74,4.34,4.34,0,0,0-.65-1.79,3.83,3.83,0,0,0-1.37-1.31,4.18,4.18,0,0,0-2.06-.48,4,4,0,0,0-2.45.77,5.08,5.08,0,0,0-1.65,2.32,12.92,12.92,0,0,0,0,7.72,5.21,5.21,0,0,0,1.65,2.34,4,4,0,0,0,2.45.78,4.13,4.13,0,0,0,1.78-.36,3.84,3.84,0,0,0,1.29-1,4.32,4.32,0,0,0,.8-1.4,4.9,4.9,0,0,0,.27-1.61Z"/><path class="cls-3" d="M295.74,179.55l4.8-18h4.15l4.75,18h-2.71l-4.13-16.34h0l-4.15,16.34Zm2.78-4.57v-2.19h8.18V175Z"/><path class="cls-3" d="M311.79,179.55v-18h6.58a5.66,5.66,0,0,1,3.92,1.21,4.63,4.63,0,0,1,1.33,3.62,5,5,0,0,1-.54,2.41,4.55,4.55,0,0,1-1.3,1.54,3,3,0,0,1-1.43.61,3.74,3.74,0,0,1,1.32.37,2.78,2.78,0,0,1,1.08,1,3.3,3.3,0,0,1,.42,1.78V178a5.09,5.09,0,0,0,.09,1,1.4,1.4,0,0,0,.23.6h-2.67a1.9,1.9,0,0,1-.19-.61,4.78,4.78,0,0,1-.09-1v-3.54a2.15,2.15,0,0,0-.69-1.74,3.06,3.06,0,0,0-2-.57h-4.19l.72-.94v8.39Zm2.59-8.61-.72-1h4.21a3,3,0,0,0,1.54-.4,3.09,3.09,0,0,0,1.09-1.15,3.53,3.53,0,0,0,.41-1.72,2.68,2.68,0,0,0-.82-2.17,3.53,3.53,0,0,0-2.34-.68H313.6l.78-1Z"/><path class="cls-3" d="M337,163.78h-5.44l.82-1.39v17.16H329.7V162.39l.91,1.39H325.1v-2.2H337Z"/></g></g></svg>