<svg xmlns="http://www.w3.org/2000/svg" viewBox="0 0 53.82 147.45"><defs><style>.cls-1,.cls-4{fill:#fff;}.cls-1{stroke:#231f20;stroke-miterlimit:10;stroke-width:2px;}.cls-2{fill:#1db392;}.cls-3{fill:#231f20;}</style></defs><g id="Layer_2" data-name="Layer 2"><g id="Layer_1-2" data-name="Layer 1"><path class="cls-1" d="M17,35.93S3.14,3.76,26.11,1.11c0,0,20.33-3.85,10.76,34.73a32.12,32.12,0,0,0-.25,5.56,33.26,33.26,0,0,0,1.15,7.23C40.29,57.8,48.56,71.5,51.51,84.72a56.38,56.38,0,0,1,1.26,14.55s-4.31,33.9-10.57,42a25.68,25.68,0,0,1-28.8,1.35S2.56,122.42,1,97.67A47.13,47.13,0,0,1,2.36,84.49C5.79,70.71,16.14,56.83,17.27,48.28a43.93,43.93,0,0,0,.35-4.87A39.8,39.8,0,0,0,17,35.93Z"/><path class="cls-2" d="M38.87,53.55l-22.5.1A22.14,22.14,0,0,0,17.55,50,21.5,21.5,0,0,0,18,46.64l18.63-.08c.22,1,.5,2,.83,3.13C37.92,51.09,38.39,52.38,38.87,53.55Z"/><path class="cls-2" d="M36.27,44l-18.13.08a29.35,29.35,0,0,0,0-3.13c0-.85-.1-1.64-.2-2.38l18.09-.08c0,.86,0,1.76,0,2.72S36.18,43.11,36.27,44Z"/><path class="cls-3" d="M17.49,13.76l7.88,3.67S23.74,18.68,19.25,19A4.89,4.89,0,0,1,17.49,13.76Z"/><path class="cls-3" d="M35.94,13.68l-7.85,3.74s1.64,1.23,6.13,1.49A4.88,4.88,0,0,0,35.94,13.68Z"/><ellipse class="cls-4" cx="20.31" cy="16.82" rx="0.65" ry="1.25" transform="translate(-0.07 0.09) rotate(-0.25)"/><ellipse class="cls-4" cx="33.1" cy="16.76" rx="0.65" ry="1.25" transform="translate(-0.07 0.15) rotate(-0.25)"/><ellipse class="cls-3" cx="26.59" cy="24.82" rx="1.63" ry="2.3" transform="translate(-0.11 0.12) rotate(-0.25)"/></g></g></svg>